<svg xmlns="http://www.w3.org/2000/svg" viewBox="0 0 91.745 71.2916"><rect x="445.9195" y="76.2081" width="22.856" height="6.3427" transform="translate(537.1645 144.979) rotate(180)" style="fill:#ffda00"/><path d="M386.3939,15.78h26.7825a33.6458,33.6458,0,0,1,33.6458,33.6458v0a33.6458,33.6458,0,0,1-33.6458,33.6458h0a33.6458,33.6458,0,0,1-33.6458-33.6458V22.6432a6.8634,6.8634,0,0,1,6.8634-6.8634Z" transform="translate(448.8221 85.0714) rotate(180)" style="fill:none;stroke:#020202;stroke-miterlimit:10;stroke-width:4px"/><circle cx="35.6458" cy="35.6458" r="26.498" style="fill:#ffda00"/><circle cx="28.9712" cy="28.9712" r="6.6746" style="fill:#020202"/><circle cx="42.3204" cy="42.3204" r="6.6746" style="fill:#020202"/><line x1="44.6419" y1="26.6496" x2="26.6496" y2="44.6419" style="fill:none;stroke:#020202;stroke-miterlimit:10;stroke-width:2px"/><line x1="91.245" y1="55.4664" x2="91.245" y2="68.771" style="fill:none;stroke:#020202;stroke-miterlimit:10"/></svg>