<svg id="Слой_2" data-name="Слой 2" xmlns="http://www.w3.org/2000/svg" viewBox="0 0 90.4424 68.891"><path d="M34.0157,66.558c.3421-5.7223-.4664-11.517-.0856-17.2414a5.1911,5.1911,0,0,1-.4725-1.8749C32.7153,36.1467,44.669,35.12,52.9943,34.7622c12.97-.5581,25.9265-1.19,38.9023-.5138V26.5228a8.2907,8.2907,0,0,0-8.2907-8.2906H26.4476a8.2906,8.2906,0,0,0-8.2906,8.2906V61.4322a8.29,8.29,0,0,0,8.2906,8.2905h7.6271a3.8619,3.8619,0,0,1,.0746-1.6187A5.0867,5.0867,0,0,1,34.0157,66.558Z" transform="translate(-18.157 -18.2322)" style="fill:#ffda00"/><rect y="13.3772" width="73.7396" height="10.0181" style="fill:#fff"/><rect x="14.7028" y="15.4005" width="73.7396" height="51.4906" rx="8.2906" style="fill:none;stroke:#020202;stroke-miterlimit:10;stroke-width:4px"/><path d="M32.86,48.174" transform="translate(-18.157 -18.2322)" style="fill:none;stroke:#020202;stroke-miterlimit:10;stroke-width:2px"/><rect x="14.7028" y="29.9418" width="73.7396" height="10.0181" style="fill:#020202"/><circle cx="27.2407" cy="53.2907" r="6.3881" style="fill:#020202"/><circle cx="37.4085" cy="53.2907" r="6.3881" style="fill:#ffda00"/></svg>