<svg id="Слой_2" data-name="Слой 2" xmlns="http://www.w3.org/2000/svg" viewBox="0 0 79.7362 90.3237"><circle cx="41.712" cy="49.298" r="6.9238" style="fill:#ffda00"/><circle cx="41.712" cy="68.8815" r="6.9238" style="fill:#ffda00"/><line x1="54.9096" y1="59.0898" x2="28.5144" y2="59.0898" style="fill:none;stroke:#ffda00;stroke-miterlimit:10;stroke-width:2px"/><circle cx="62.3421" cy="37.8266" r="5.4047" style="fill:none;stroke:#020202;stroke-miterlimit:10;stroke-width:4px"/><path d="M553.8482,246.9953l-18.1491-6.7165a14.4212,14.4212,0,0,0-10.6539.2557l-32.0478,13.6421a9.7844,9.7844,0,0,0-5.17,12.8348l10.8445,25.4752a9.3927,9.3927,0,0,0,1.5545,2.4726c2.9858-7.4945,10.98-12.1493,16.7854-17.273,1.0149-.8958,1.9829-1.7862,2.9274-2.662q.6871-.8254,1.3872-1.6367a5.7673,5.7673,0,0,1,1.3374-4.212c4.3477-5.4159,10.2372-6.6263,16.87-6.6486a5.52,5.52,0,0,1,.8276.0639c.37-.0824.739-.1724,1.1116-.2443a5.4076,5.4076,0,1,1,8.28-.6358,24.8339,24.8339,0,0,1,7.2341,1.365l1.8762-4.3A8.8059,8.8059,0,0,0,553.8482,246.9953Z" transform="translate(-487.0428 -239.3823)" style="fill:#ffda00"/><path d="M564.2237,290.4247l.5516-19.3444a8.8062,8.8062,0,0,0-9.0536-9.0536l-19.3444.5516a14.4219,14.4219,0,0,0-9.7866,4.2182l-24.6289,24.6289a9.7842,9.7842,0,0,0,0,13.837L521.54,324.84a9.7841,9.7841,0,0,0,13.8369,0l24.629-24.6289A14.4213,14.4213,0,0,0,564.2237,290.4247Z" transform="translate(-487.0428 -239.3823)" style="fill:none;stroke:#020202;stroke-miterlimit:10;stroke-width:4px"/></svg>