<svg xmlns="http://www.w3.org/2000/svg" width="15.687" height="15.688" viewBox="0 0 15.687 15.688">
  <defs>
    <style>
      .cls-1 {
        fill: #fff;
        fill-rule: evenodd;
      }
    </style>
  </defs>
  <path id="Фигура_25" data-name="Фигура 25" class="cls-1" d="M191.163,197.729a2.244,2.244,0,1,1-2.244-2.244A2.244,2.244,0,0,1,191.163,197.729Zm1.19-7.842h-6.87a4.42,4.42,0,0,0-4.407,4.409v6.869a4.421,4.421,0,0,0,4.407,4.408h6.87a4.421,4.421,0,0,0,4.407-4.408V194.3A4.42,4.42,0,0,0,192.353,189.887Zm-3.435,12.665a4.822,4.822,0,1,1,4.821-4.823A4.822,4.822,0,0,1,188.918,202.552Zm4.821-8.909a0.92,0.92,0,1,1,.92-0.921A0.92,0.92,0,0,1,193.739,193.643Z" transform="translate(-181.063 -189.875)"/>
</svg>
