<?xml version="1.0" encoding="utf-8"?>
<!-- Generator: Adobe Illustrator 24.0.2, SVG Export Plug-In . SVG Version: 6.00 Build 0)  -->
<svg version="1.1" id="_x31__1_" xmlns="http://www.w3.org/2000/svg" xmlns:xlink="http://www.w3.org/1999/xlink" x="0px" y="0px"
	 width="384.1px" height="128.2px" viewBox="0 0 384.1 128.2" enable-background="new 0 0 384.1 128.2" xml:space="preserve">
<path id="_x32_" d="M201.6,76.2c0.9,2.1,1.4,4.5,1.4,7.2c0,6.8-2.6,12.3-7.8,16.3c-5.2,4-12.2,6.1-21,6.1c-9.2,0-16.4-2.1-21.7-6.3
	c-5.3-4.2-8-10-8.1-17.3h20.3c0.3,5.7,3.7,8.5,10.3,8.5c2.5,0,4.5-0.5,6-1.5c1.5-1,2.2-2.3,2.2-4c0-1-0.4-1.9-1.3-2.7
	c-0.8-0.7-2.3-1.4-4.6-2.2c-2.3-0.8-5-1.6-8.1-2.5c-3.1-0.9-5.1-1.5-5.9-1.8c-2.7-0.9-4.8-1.8-6.6-2.7c-1.7-0.9-3.4-2-5-3.4
	c-1.6-1.4-2.8-3.1-3.6-5.1c-0.8-2-1.2-4.4-1.2-7.1c0-6.2,2.5-11.1,7.4-14.9c4.9-3.8,11.3-5.7,19.3-5.7c8.4,0,14.9,1.9,19.6,5.6
	c4.7,3.7,7,9,7.2,15.8h-19c-0.1-2-0.8-3.5-2.3-4.6c-1.5-1.1-3.5-1.7-6.1-1.7c-4.4,0-6.7,1.4-6.7,4.1c0,0.7,0.4,1.4,1.1,2.1
	s1.8,1.2,3.1,1.7c1.3,0.5,2.5,0.8,3.7,1.2c1.1,0.3,2.4,0.6,3.7,0.9c1.4,0.3,2.2,0.4,2.5,0.5c2.6,0.7,4.8,1.3,6.7,1.9
	c1.8,0.6,3.9,1.5,6,2.6c2.2,1.1,3.9,2.4,5.2,3.8C199.6,72.3,200.7,74.1,201.6,76.2z M229.8,41.8h-18.2v14.7h-7.9v11.4h7.9v21.4
	c0,5.7,1.4,9.8,4.2,12.1c2.8,2.3,7.6,3.5,14.3,3.5c2.7,0,5.9-0.1,9.6-0.4V91.3c-0.8,0.1-2.1,0.2-3.8,0.2c-2.7,0-4.3-0.4-5-1.3
	c-0.7-0.9-1.1-2.6-1.1-5.2v-17h9.9V56.5h-9.9V41.8z M320.5,57.4c-2.2,1.4-4.2,3.6-5.9,6.6l0.1-7.4h-17.5v47.7h18.2V82.6
	c0-3.8,1-6.7,2.9-8.7c1.9-2.1,4.8-3.1,8.5-3.1c1.9,0,4.2,0.4,6.8,1.3v-16c-1.7-0.6-3.2-0.8-4.7-0.8
	C325.5,55.2,322.7,55.9,320.5,57.4z M382.9,83c-0.8-1.7-1.7-3-2.8-4c-1.1-1-2.6-1.9-4.4-2.7c-1.9-0.8-3.5-1.4-4.9-1.7
	c-1.4-0.3-3.3-0.7-5.5-1.2c-0.1,0-0.7-0.1-1.8-0.2c-1.2-0.2-2.1-0.3-2.9-0.5c-0.7-0.2-1.6-0.4-2.7-0.7c-1-0.3-1.8-0.8-2.4-1.3
	c-0.5-0.5-0.8-1.1-0.8-1.8c0-1.9,1.7-2.9,5-2.9c2.2,0,3.7,0.3,4.6,0.9c0.9,0.6,1.5,1.8,1.9,3.5h16.6c-0.5-5.7-2.8-9.7-6.8-12
	c-4.1-2.2-9.3-3.4-15.8-3.4c-7.5,0-13.3,1.3-17.2,3.9c-4,2.6-6,6.3-6,11.2c0,5.4,2.5,9.3,7.4,11.7c2.1,1,6.3,2.3,12.6,3.6
	c0.6,0.1,1.3,0.3,2.2,0.5c2.8,0.6,4.7,1.2,5.6,1.7c1,0.5,1.5,1.3,1.5,2.5c0,1.2-0.5,2.1-1.5,2.8c-1,0.7-2.4,1-4.2,1
	c-2.3,0-4.1-0.4-5.2-1.3c-1.1-0.9-1.8-2.3-2.1-4.3h-17.3c0.9,11.4,9,17.1,24.2,17.1c7.5,0,13.4-1.5,17.7-4.4c4.3-3,6.4-7.1,6.4-12.3
	C384.1,86.6,383.7,84.6,382.9,83z M300,46.3c-1.9-1.9-2.8-4.4-2.8-7.5c0-3,1-5.5,2.9-7.4c1.9-1.9,4.4-2.9,7.5-2.9
	c3,0,5.5,0.9,7.3,2.8c1.9,1.9,2.8,4.4,2.8,7.4c0,3.1-0.9,5.6-2.8,7.5c-1.9,1.9-4.4,2.9-7.4,2.9C304.4,49.2,301.9,48.2,300,46.3z
	 M303.6,38.9c0,1.8,0.3,3.2,1,4.2c0.7,1,1.6,1.5,2.9,1.5c1.2,0,2.2-0.5,2.8-1.5c0.7-1,1-2.4,1-4.2c0-1.8-0.3-3.1-1-4.1
	s-1.6-1.4-2.9-1.4c-1.2,0-2.1,0.5-2.8,1.5C303.9,35.8,303.6,37.1,303.6,38.9z M326,43.1l1.9-2l4.7,7.6h7.6l-8.1-12l7-7.4h-7.3
	l-5.9,7v-7h-6.3v19.4h6.4V43.1z M348.4,40.8h6.6v7.8h6.4V29.2H355V36h-6.6v-6.8H342v19.4h6.4V40.8z M291.6,64c0.6,1.3,1,3.3,1.2,5.8
	v34.4l-17.3,0.1c0,0,0-3.1,0-4.4c-4,4-9.1,6-15.3,6c-5.4,0-9.7-1.3-12.7-4c-3.1-2.7-4.6-6.3-4.6-11c0-2.4,0.5-4.5,1.5-6.3
	c1-1.8,2-3.2,3-4.1c1-1,2.8-1.8,5.2-2.6c2.5-0.8,4.2-1.2,5.3-1.4c1-0.2,3.1-0.5,6.1-0.9c0.1-0.1,0.2-0.1,0.3-0.1s0.2,0,0.4,0
	c0.2,0,0.3,0,0.4,0c0.3-0.1,1-0.1,2.2-0.2c1.2-0.1,2.1-0.2,2.7-0.3c0.6-0.1,1.4-0.3,2.3-0.6c0.9-0.3,1.6-0.8,2-1.4
	c0.4-0.6,0.6-1.4,0.6-2.2c0-2.8-2-4.2-6-4.2c-2.2,0-3.8,0.3-4.8,1c-1,0.7-1.6,1.9-1.9,3.8h-17.1c0.4-10.7,8.4-16,23.9-16
	C281.4,55.1,288.9,58.1,291.6,64z M275.2,82.5c-1.4,0.9-4.2,1.9-8.5,2.8c-3.3,0.7-5,2.4-5,5c0,1.5,0.5,2.7,1.4,3.5
	c0.9,0.9,2.2,1.3,3.8,1.3c3.3,0,5.7-1.2,7.2-3.7c0.7-1.2,1.1-3.2,1.1-6V82.5z M363.4,43.2c0-0.9,0.2-1.7,0.5-2.4
	c0.3-0.7,0.7-1.2,1.1-1.6c0.4-0.4,1.1-0.7,1.9-1c0.8-0.3,1.5-0.5,2.1-0.6c0.6-0.1,1.4-0.2,2.4-0.4c2.4-0.4,3.8-0.6,4.1-0.8
	c0.7-0.3,1-0.8,1-1.6c0-1.4-1-2.1-3-2.1c-1,0-1.8,0.2-2.2,0.5c-0.5,0.3-0.8,1-1,2h-6c0.4-4.3,3.5-6.5,9.4-6.5c3.1,0,5.5,0.6,7.2,1.8
	c0.7,0.5,1.2,1.1,1.5,1.8c0.3,0.7,0.4,1.7,0.4,2.9v13.4h-6c0,0,0-1.2,0-1.8c-1.8,1.6-3.9,2.4-6.4,2.4c-2.1,0-3.8-0.5-5-1.6
	C364,46.5,363.4,45.1,363.4,43.2z M369.9,43c0,0.7,0.2,1.3,0.7,1.7c0.5,0.4,1.1,0.6,1.8,0.6c1.1,0,2.1-0.3,2.9-1
	c0.8-0.7,1.2-1.6,1.2-2.8v-2c-0.3,0.2-0.7,0.3-1.1,0.4c-0.4,0.1-0.7,0.2-1,0.3c-0.2,0.1-0.6,0.1-1.2,0.2c-0.5,0.1-0.9,0.2-1,0.2
	C370.7,40.9,369.9,41.7,369.9,43z M69.9,110.2h7.6c16.8,0,30.5-13.6,30.5-30.5v0c0-3-0.5-6-1.3-8.7C86.9,73.6,71.3,90,69.9,110.2z
	 M84.4,47.1C97.9,44.3,108,32.3,108,18v0H69.9C70.7,29.6,76.1,39.9,84.4,47.1z M41.7,81C28.2,83.8,18,95.8,18,110.2v0h38.2
	C55.4,98.6,50,88.2,41.7,81z M18,48.5L18,48.5c0,3.1,0.5,6,1.3,8.8c19.9-2.6,35.6-19,36.9-39.3h-7.8C31.6,18,18,31.6,18,48.5z
	 M117,0l9,0v9v9c0,11.4-4,22.2-11.2,30.7c7.2,8.6,11.2,19.5,11.2,31c0,26.7-21.7,48.5-48.5,48.5H18H9H0v-9v-9C0,98.7,4,88,11.2,79.4
	C4,70.8,0,60,0,48.5C0,21.7,21.7,0,48.5,0H108h0L117,0z M117,9l-9,0H48.5C26.7,9,9,26.7,9,48.5c0,12.6,5.9,23.8,15.1,31
	C14.9,86.6,9,97.7,9,110.2v9h9h59.5c21.8,0,39.5-17.7,39.5-39.5c0-12.6-5.9-23.8-15.1-31C111.1,41.6,117,30.5,117,18V9z"/>
<path id="_x31__2_" fill="#FFCE00" d="M63.1,30.3c4.9,16,17.4,28.7,33.3,33.8C80.5,69.3,68,82,63.1,98c-4.9-16-17.4-28.7-33.3-33.8
	C45.7,58.9,58.2,46.2,63.1,30.3z"/>
</svg>
