<svg xmlns="http://www.w3.org/2000/svg" width="11.187" height="20.156" viewBox="0 0 11.187 20.156">
  <defs>
    <style>
      .cls-1 {
        fill: #fff;
        fill-rule: evenodd;
      }
    </style>
  </defs>
  <path id="Фигура_26" data-name="Фигура 26" class="cls-1" d="M245.522,199.321c-0.008.035-.018,0.069-0.023,0.1a1.6,1.6,0,0,1-.287.679,1.645,1.645,0,0,1-.525.448c-0.277.16-.554,0.322-0.84,0.466-0.249.125-.507,0.229-0.764,0.333a8.078,8.078,0,0,1-.989.319l-0.146.035a0.7,0.7,0,0,0,.053.058l2.712,2.829a1.573,1.573,0,0,1,.057,2.134,1.369,1.369,0,0,1-.815.465,1.468,1.468,0,0,1-.4.019,1.355,1.355,0,0,1-.8-0.349c-0.057-.051-0.112-0.107-0.167-0.163q-1.309-1.365-2.618-2.73a0.627,0.627,0,0,1-.051-0.067c-0.022.031-.035,0.052-0.051,0.07l-2.674,2.787a1.413,1.413,0,0,1-.8.436,1.382,1.382,0,0,1-.982-0.178,1.485,1.485,0,0,1-.669-0.874,1.579,1.579,0,0,1-.061-0.375,1.511,1.511,0,0,1,.194-0.839,1.355,1.355,0,0,1,.2-0.283q1.373-1.435,2.749-2.869c0.018-.018.04-0.034,0.064-0.054a0.08,0.08,0,0,0-.029-0.024,7.125,7.125,0,0,1-.957-0.29c-0.264-.1-0.525-0.207-0.783-0.326-0.205-.093-0.407-0.2-0.6-0.31-0.218-.125-0.432-0.26-0.639-0.4a1.312,1.312,0,0,1-.369-0.44,1.492,1.492,0,0,1-.177-0.516,1.62,1.62,0,0,1,.133-0.928,1.514,1.514,0,0,1,.447-0.555,1.383,1.383,0,0,1,.565-0.261,1.442,1.442,0,0,1,.327-0.034,1.484,1.484,0,0,1,.783.252,4.824,4.824,0,0,0,.786.433c0.205,0.087.412,0.172,0.622,0.245a4.5,4.5,0,0,0,.775.2c0.17,0.028.339,0.058,0.51,0.08,0.1,0.014.2,0.017,0.3,0.022,0.14,0.006.28,0.013,0.419,0.008,0.194-.007.387-0.022,0.581-0.038a5.168,5.168,0,0,0,.873-0.155,6.242,6.242,0,0,0,.953-0.338,6.933,6.933,0,0,0,.947-0.521,1.078,1.078,0,0,1,.434-0.158,1.5,1.5,0,0,1,.274-0.03,1.444,1.444,0,0,1,.892.323,1.489,1.489,0,0,1,.5.742c0.027,0.09.039,0.186,0.058,0.28a0.046,0.046,0,0,0,.013.016v0.326Zm-5.343-12.271a0.084,0.084,0,0,0,.027.013,4.336,4.336,0,0,1,.925.145,4.689,4.689,0,0,1,.8.286,4.354,4.354,0,0,1,.771.446q0.276,0.206.533,0.436a4.142,4.142,0,0,1,.378.383,5.1,5.1,0,0,1,.563.78,4.635,4.635,0,0,1,.389.821c0.08,0.23.148,0.463,0.209,0.7a4.1,4.1,0,0,1,.086.483c0.02,0.151.031,0.3,0.039,0.456a4.166,4.166,0,0,1,.009.433,5.282,5.282,0,0,1-.048.532c-0.031.21-.071,0.418-0.117,0.625a4.572,4.572,0,0,1-.234.713,5.108,5.108,0,0,1-.5.931,4.738,4.738,0,0,1-.3.4,5.926,5.926,0,0,1-.415.452c-0.146.14-.305,0.27-0.465,0.4a4.526,4.526,0,0,1-.768.475,4.613,4.613,0,0,1-1.036.373c-0.178.038-.356,0.071-0.536,0.1-0.1.014-.2,0.017-0.3,0.023-0.124,0-.25.014-0.374,0.007-0.168-.006-0.336-0.022-0.5-0.039a4.082,4.082,0,0,1-1-.237c-0.188-.069-0.37-0.153-0.552-0.24a3.483,3.483,0,0,1-.652-0.39c-0.166-.123-0.326-0.259-0.484-0.394-0.091-.08-0.179-0.164-0.261-0.252a5.469,5.469,0,0,1-.512-0.639,5.2,5.2,0,0,1-.413-0.723,4.932,4.932,0,0,1-.388-1.164c-0.034-.182-0.06-0.367-0.087-0.549a4.436,4.436,0,0,1-.026-0.839c0.009-.216.043-0.435,0.074-0.652a4.479,4.479,0,0,1,.213-0.844,5.1,5.1,0,0,1,.353-0.8,5.553,5.553,0,0,1,.418-0.652c0.084-.111.176-0.216,0.267-0.321,0.058-.068.118-0.135,0.181-0.2a5.549,5.549,0,0,1,.593-0.513,5.444,5.444,0,0,1,.7-0.437,4.709,4.709,0,0,1,1.033-.384c0.175-.043.354-0.068,0.532-0.095,0.11-.016.222-0.021,0.333-0.033a0.071,0.071,0,0,0,.026-0.013h0.519Zm-2.323,5.206a2.067,2.067,0,1,0,2.159-2.149A2.115,2.115,0,0,0,237.856,192.256Z" transform="translate(-234.344 -187.063)"/>
</svg>
