<svg width="142" height="45" viewBox="0 0 142 45" fill="none" xmlns="http://www.w3.org/2000/svg">
<path d="M10.2784 2.02759C7.46189 3.50499 4.58973 4.97738 2.18784 7.45141C-0.0471769 9.71008 -0.628687 13.5613 0.716371 16.4661C2.16204 19.2941 4.03804 21.8851 6.27864 24.1486C4.77646 16.5389 6.20325 8.648 10.2784 2.02759Z" fill="#37A58C"/>
<path d="M7.93701 25.621C10.703 27.3588 13.4689 29.0465 16.6849 29.7827C20.1942 30.574 23.4406 29.1517 25.5138 26.3572C27.1282 23.7206 28.3894 20.8873 29.2658 17.9285C23.3653 23.0235 15.7638 25.7651 7.93701 25.621Z" fill="#DD0060"/>
<path d="M28.73 4.39652C28.0595 3.18056 27.098 2.14609 25.9299 1.38382C24.7617 0.621552 23.4226 0.154773 22.03 0.0244128C18.8807 -0.0949263 15.7301 0.223689 12.6702 0.970952C19.5826 3.19958 26.5051 8.8738 30.0093 15.4595C30.166 11.6683 30.338 7.61175 28.73 4.39652Z" fill="#505050"/>
<path d="M141.463 41.9774C141.874 40.8195 142.052 39.5882 141.987 38.3577V15.0051H134.195V38.175C134.199 38.395 134.16 38.6135 134.081 38.8181C134.002 39.0226 133.884 39.2092 133.735 39.3671C133.585 39.525 133.407 39.6512 133.21 39.7385C133.014 39.8257 132.802 39.8724 132.587 39.8757H132.419C131.996 39.905 131.578 39.7614 131.258 39.4761C130.937 39.1908 130.739 38.787 130.708 38.3527V15H122.95V38.3527C122.875 39.5828 123.044 40.8158 123.445 41.9774C123.763 42.6722 124.226 43.2867 124.802 43.7771C125.377 44.2676 126.051 44.622 126.775 44.8153C127.471 44.9491 128.179 45.0104 128.887 44.998H136.006C136.717 45.0118 137.428 44.954 138.128 44.8254C138.855 44.6334 139.531 44.2783 140.107 43.7858C140.684 43.2933 141.147 42.6757 141.463 41.9774Z" fill="black"/>
<path d="M104.23 15C101.639 15 99.8315 17.2331 99.8518 19.9027V45H107.997V32.5402H111.316V45H119.421V15H104.23ZM111.306 27.3938H108.002V21.3035C108.002 20.192 108.42 19.7809 109.433 19.7809H111.306V27.3938Z" fill="black"/>
<path d="M88.5165 15V27.3938H85.1047V15H77.2722V45H85.1193V32.5402H88.4824V45H96.3393V15H88.5165Z" fill="black"/>
<path d="M68.7884 20.8061H74.2516V15H60.7139V45H74.2616V39.1888H68.7584V32.5402H73.4261V27.3938H68.7584L68.7884 20.8061Z" fill="black"/>
<path d="M53.1583 29.7943C54.2815 29.5855 55.298 28.9923 56.0351 28.1155C56.7722 27.2387 57.1843 26.1324 57.2015 24.9848V19.906C57.156 17.1889 55.1799 15 53.0269 15H37.6326V45H45.6532V32.5317H47.6748C48.6856 32.5317 49.0848 33.0041 49.0848 34.0909V45H57.2015V34.675C57.2015 32.0239 55.0738 30.0178 53.1583 29.7943ZM49.0495 25.8989C49.0798 26.8029 48.7007 27.3413 48.0387 27.4226H45.6431V19.8045H47.6647C48.6755 19.8045 49.0899 20.3123 49.0747 21.3281L49.0495 25.8989Z" fill="black"/>
</svg>
