<svg id="Слой_2" data-name="Слой 2" xmlns="http://www.w3.org/2000/svg" viewBox="0 0 82.4611 78.7643"><path d="M48.1621,23.0427H73.399a9.0621,9.0621,0,0,1,9.0621,9.0621V48.28a9.0621,9.0621,0,0,1-9.0621,9.0621H48.1621a0,0,0,0,1,0,0V23.0427A0,0,0,0,1,48.1621,23.0427Z" style="fill:#ffeda1"/><path d="M17.9015,5.4613H33.1076a0,0,0,0,1,0,0v2.46a3.7558,3.7558,0,0,1-3.7558,3.7558H21.6573a3.7558,3.7558,0,0,1-3.7558-3.7558v-2.46A0,0,0,0,1,17.9015,5.4613Z" style="fill:#020202"/><path d="M199.4276,123.6018a3.7819,3.7819,0,0,1,3.7776,3.7777v63.209a3.7818,3.7818,0,0,1-3.7776,3.7776H163.9737a3.7818,3.7818,0,0,1-3.7776-3.7776V127.38a3.7819,3.7819,0,0,1,3.7776-3.7777h35.4539m0-4H163.9737a7.7776,7.7776,0,0,0-7.7776,7.7777v63.209a7.7776,7.7776,0,0,0,7.7776,7.7776h35.4539a7.7777,7.7777,0,0,0,7.7776-7.7776V127.38a7.7777,7.7777,0,0,0-7.7776-7.7777Z" transform="translate(-156.1961 -119.6018)" style="fill:#fff"/><circle cx="25.5046" cy="39.3821" r="13.1669" style="fill:#ffeda1"/><polygon points="24.979 45.941 18.261 39.222 19.508 37.975 24.979 38.992 31.148 32.823 32.748 34.423 24.979 45.941" style="fill:#020202"/><line x1="18.0812" y1="67.3716" x2="32.928" y2="67.3716" style="fill:none;stroke:#020202;stroke-miterlimit:10;stroke-width:2px"/><rect x="55.2963" y="32.9523" width="20.0306" height="3.5898" style="fill:#ffda00"/><rect x="55.2963" y="38.8583" width="20.0306" height="3.5898" style="fill:#ffda00"/><rect x="55.2963" y="45.1281" width="20.0306" height="3.5898" style="fill:#ffda00"/></svg>