<svg id="Слой_2" data-name="Слой 2" xmlns="http://www.w3.org/2000/svg" viewBox="0 0 81.2843 72.9896"><line x1="40.4345" y1="26.663" x2="40.4345" y2="58.1036" style="fill:none;stroke:#020202;stroke-miterlimit:10;stroke-width:4px"/><line x1="10.5925" y1="25.6897" x2="70.2765" y2="25.6897" style="fill:none;stroke:#020202;stroke-miterlimit:10;stroke-width:4px"/><rect x="9.8399" y="0.6848" width="8.3932" height="57.8356" style="fill:#ffeda1"/><rect x="61.1629" y="0.6848" width="9.1136" height="58.198" style="fill:#ffeda1"/><rect x="326.5293" y="222.6125" width="8.8388" height="59.2929" transform="translate(-213.583 336.0528) rotate(-90)" style="fill:#ffeda1"/><rect x="10.5925" y="2" width="58.2141" height="58.2141" style="fill:none;stroke:#000;stroke-miterlimit:10;stroke-width:4px"/><path d="M2,60.2141H77.134a0,0,0,0,1,0,0v1.52a9.255,9.255,0,0,1-9.255,9.255H11.255A9.255,9.255,0,0,1,2,61.7346v-1.52A0,0,0,0,1,2,60.2141Z" style="fill:none;stroke:#000;stroke-miterlimit:10;stroke-width:4px"/><circle cx="68.8066" cy="27.0233" r="12.4777" style="fill:#fff"/><polygon points="68.308 33.239 61.942 26.872 63.124 25.69 68.308 26.654 74.155 20.808 75.671 22.324 68.308 33.239" style="fill:#020202"/></svg>