<svg id="Слой_2" data-name="Слой 2" xmlns="http://www.w3.org/2000/svg" viewBox="0 0 109.1494 68.8344"><path d="M189.124,308.5107a13.5978,13.5978,0,0,1-27.1956,0" transform="translate(-146.5985 -253.2741)" style="fill:#ffeda1"/><path d="M249.69,308.5107a13.5978,13.5978,0,0,1-27.1956,0" transform="translate(-146.5985 -253.2741)" style="fill:#ffeda1"/><circle cx="44.5928" cy="28.6183" r="13.1669" style="fill:#fff"/><polygon points="44.067 35.177 37.349 28.458 38.596 27.211 44.067 28.228 50.237 22.059 51.836 23.659 44.067 35.177" style="fill:#020202"/><rect x="9.5976" y="2" width="62.2406" height="53.2366" style="fill:none;stroke:#000;stroke-miterlimit:10;stroke-width:4px"/><polygon points="107.149 55.237 71.838 55.237 71.838 14.517 89.494 14.517 107.149 34.877 107.149 55.237" style="fill:none;stroke:#000;stroke-miterlimit:10;stroke-width:4px"/><rect y="17.5058" width="19.1952" height="4.9336" style="fill:#fff"/><rect y="26.1515" width="19.1952" height="4.9336" style="fill:#fff"/><rect y="34.7972" width="19.1952" height="4.9336" style="fill:#fff"/></svg>