<svg id="Слой_2" data-name="Слой 2" xmlns="http://www.w3.org/2000/svg" viewBox="0 0 82.9119 83.381"><circle cx="55.5041" cy="27.4078" r="13.1669" style="fill:#ffeda1"/><circle cx="27.4078" cy="55.9731" r="13.1669" style="fill:#fff"/><path d="M314.1444,174.69a25.3057,25.3057,0,0,0,11.0747-2.5342c1.6956-.8224,6.8951,1.7812,8.3546.6184,1.6244-1.2942-.5225-6.3924.7422-8.041a25.4084,25.4084,0,1,0-45.5794-15.451" transform="translate(-258.6403 -121.8744)" style="fill:none;stroke:#fff;stroke-miterlimit:10;stroke-width:4px"/><path d="M311.456,177.8476a25.4187,25.4187,0,0,1-36.4826,22.8736c-1.6956-.8225-6.8951,1.7812-8.3546.6183-1.6244-1.2941.5225-6.3923-.7422-8.0409a25.4084,25.4084,0,1,1,45.5794-15.451Z" transform="translate(-258.6403 -121.8744)" style="fill:none;stroke:#020202;stroke-miterlimit:10;stroke-width:4px"/><path d="M310.1978,146.4631a3.8186,3.8186,0,1,1,3.8186,3.8185" transform="translate(-258.6403 -121.8744)" style="fill:none;stroke:#020202;stroke-miterlimit:10;stroke-width:4px"/><path d="M314.0164,153.262a1.49,1.49,0,0,1,0-2.98" transform="translate(-258.6403 -121.8744)" style="fill:none;stroke:#020202;stroke-miterlimit:10;stroke-width:4px"/><circle cx="54.6377" cy="35.8208" r="1.7949" style="fill:#020202"/><circle cx="27.4015" cy="55.9731" r="2.3074" style="fill:#ffda00"/><circle cx="33.325" cy="55.9731" r="2.3074" style="fill:#ffda00"/><circle cx="21.4143" cy="55.9731" r="2.3074" style="fill:#ffda00"/></svg>