<?xml version="1.0" encoding="utf-8"?>
<svg version="1.1" xmlns="http://www.w3.org/2000/svg" xmlns:xlink="http://www.w3.org/1999/xlink" x="0px"
	 y="0px" width="17.8px" height="16.8px" viewBox="0 0 17.8 16.8" enable-background="new 0 0 17.8 16.8" xml:space="preserve">
<path fill="#FFFFFF" d="M0.6,16.4c0.1-0.3,0.2-0.5,0.3-0.7c0.3-0.8,0.5-1.5,0.8-2.3c0-0.1,0-0.1,0-0.2
	c-0.8-1.1-1.3-2.3-1.5-3.6c-0.3-1.9,0-3.7,1.1-5.4C2,2.8,3.2,1.7,4.8,1c1-0.5,2-0.8,3.1-0.9c2.3-0.2,4.3,0.3,6.2,1.5
	c1.8,1.2,3,2.9,3.5,5c0.2,0.7,0.3,1.5,0.2,2.2c-0.2,2.4-1.2,4.5-3.2,6c-1.2,1-2.6,1.6-4.2,1.8c-0.8,0.1-1.5,0.1-2.3,0.1
	c-1.4-0.1-2.7-0.6-3.9-1.3c-0.1,0-0.1-0.1-0.2,0c-1,0.3-2,0.6-3.1,0.9C0.7,16.4,0.7,16.4,0.6,16.4z M14.4,11.1
	c0-0.1-0.1-0.2-0.2-0.3c-0.6-0.3-1.2-0.6-1.7-0.9c-0.2-0.1-0.3-0.2-0.5-0.2c-0.2-0.1-0.3,0-0.5,0.1c-0.3,0.3-0.6,0.7-0.9,1
	C10.4,11,10.2,11,10,10.9c-0.3-0.1-0.6-0.3-0.9-0.4C7.9,9.9,7.1,8.9,6.4,7.8C6.2,7.5,6.3,7.4,6.5,7.2C6.7,6.9,7,6.7,7.2,6.4
	c0.1-0.1,0.1-0.3,0-0.4C7,5.4,6.8,4.8,6.5,4.2C6.5,4.1,6.4,3.9,6.3,3.7C6.2,3.6,6.1,3.5,5.9,3.5c-0.1,0-0.2,0-0.3,0
	c-0.4-0.1-0.8,0-1.1,0.4c0,0-0.1,0.1-0.1,0.1C3.7,4.6,3.5,5.4,3.6,6.3c0.1,0.6,0.3,1.1,0.5,1.6C4.7,8.8,5.3,9.6,6,10.4
	c0.7,0.7,1.5,1.4,2.4,1.9c0.7,0.4,1.6,0.7,2.4,0.9c0.5,0.2,1.1,0.2,1.7,0.1c0.6-0.1,1.1-0.4,1.5-0.8c0.1-0.1,0.1-0.1,0.2-0.2
	C14.3,11.9,14.4,11.6,14.4,11.1z"/>
</svg>
